<?xml version="1.0" encoding="utf-8"?>
<!-- Generator: Adobe Illustrator 19.0.1, SVG Export Plug-In . SVG Version: 6.00 Build 0)  -->
<svg version="1.1" id="Layer_1" xmlns="http://www.w3.org/2000/svg" xmlns:xlink="http://www.w3.org/1999/xlink" x="0px" y="0px"
	 viewBox="0 0 40 40" style="enable-background:new 0 0 40 40;" xml:space="preserve">
<path id="Firefox_Logo" d="M38.1,26.1c1.1-2.3,2.8-7.3,1.3-11.5c0,0.1,0,0.1,0,0.1c0-0.1,0-0.1,0-0.1s-0.3,0.8-0.6,2.1
	c0-0.2-0.1-0.3-0.1-0.5c0.1-1.6,0.1-3.2-0.2-4.8C38,8.9,36.1,6.7,35.1,6c0.1,0.1,0.1,0.1,0.2,0.1C35.1,6.1,35.1,6,35.1,6
	s0.1,0.2,0.1,0.6c-1.1-1.7-2.7-2.6-2.7-2.6s0.1,0.3,0.1,0.9c-3.4-3.1-7.8-5-12.7-5c-5,0-9.5,1.9-12.9,5.1c0.2,0.2,0.4,0.5,0.6,0.8
	c0,0,1.3-0.2,2.9-0.1c2.7-2,6-3.1,9.4-3.1c4.4,0,8.5,1.7,11.6,4.9c0.2,0.2,0.3,0.3,0.5,0.5c-0.9-0.7-2.1-1.3-2.9-1.4
	c1.7,1.3,4.3,4.6,4,10.3c-0.4-0.9-1-1.7-1.5-2.2c0.6,5.8,0.1,7-0.3,8.5c-0.1-0.7-0.3-1.2-0.5-1.6c0,0-0.1,1.8-1.2,4.4
	c-0.9,1.9-1.7,2.6-2.2,2.5c-0.3-0.1-0.1-0.4-0.2-0.8c0,0-0.6,0.3-1.2,0.9c-0.6,0.6-1.1,1.3-1.3,1.1c0.2-0.2,0.3-0.5,0.5-0.7
	c-0.2,0.2-0.8,0.6-2,0.8c-0.5,0.1-2.7,0.5-5.6-1c0.4-0.1,1-0.2,1.5,0.1c-0.5-0.5-1.6-0.4-2.5-0.7c-0.7-0.2-1.7-1.3-2.2-1.8
	c2.2,0.6,4.6,0.2,5.9-0.8c1.4-1,2.2-1.7,2.9-1.5c0.7,0.2,1.2-0.6,0.6-1.3c-0.6-0.7-2-1.6-3.8-1.1c-1.3,0.3-3,1.9-5.5,0.3
	c-2.1-1.3-2.1-2.3-2.1-3c0-0.5,0.3-1.1,0.8-1.4c0.3,0.1,0.5,0.2,0.5,0.2s-0.1-0.2-0.2-0.3c0,0,0,0,0.1,0c0.2,0.1,0.7,0.3,1,0.4
	c0.3,0.2,0.5,0.4,0.5,0.4s0.1-0.1,0-0.2c0-0.1-0.2-0.3-0.5-0.5c0,0,0,0,0,0c0.2,0.1,0.4,0.2,0.6,0.3c0.1-0.3,0.2-0.6,0.1-1.2
	c-0.1-0.4-0.1-0.5-0.2-0.6c-0.1-0.1,0-0.2,0.2-0.1c0-0.1-0.1-0.2-0.1-0.3l0,0c0,0,0-0.1,0.1-0.1c0.4-0.6,3-2,3.1-2.1
	c0.2-0.2,0.5-0.5,0.7-0.8c0.3-0.2,0.4-0.9,0.5-1.4c0-0.2-0.4-0.5-0.6-0.5c-0.1,0-0.6-0.1-0.9-0.1c0,0,0,0,0.1,0c-0.5,0-1.1-0.1-2,0
	c-0.8,0-1.4-0.5-1.7-1c-0.1-0.1-0.1-0.2-0.2-0.3C14,9.6,14,9.5,14,9.4c0.4-1.4,1.1-2.6,2.3-3.5c0.1-0.1-0.3,0.1-0.2,0
	c0.1-0.1,0.6-0.3,0.6-0.4c0.1-0.1-0.5-0.2-1.1-0.1c-0.6,0.1-0.7,0.2-0.9,0.3c0.1-0.1,0.5-0.3,0.4-0.3c-0.6,0.1-1.3,0.5-1.9,1
	c0-0.1,0-0.1,0-0.2c-0.3,0.2-1,0.7-1.2,1.1c0-0.1,0-0.1,0-0.2c-0.2,0.2-0.4,0.4-0.6,0.6l0,0C9.6,7.3,8.1,7.4,6.8,7.8
	C6.4,7.5,5.7,6.8,5.2,6C5.2,5.9,5.2,6.2,5.1,6.1c-0.3-0.5-0.5-1.3-0.6-2c0-0.1,0-0.1,0-0.2c0,0-0.2,0.1-0.5,0.6
	C4,4.7,3.9,4.9,3.8,5.3C3.7,5.5,3.7,5.6,3.6,5.7c0,0,0-0.3,0-0.3C3.6,5.5,3.4,5.7,3.3,5.9C3.3,6.1,3.2,6.2,3.2,6.5c0,0,0,0,0,0
	c0-0.1,0-0.3,0-0.2C3,6.7,2.9,7.1,2.8,7.6C2.7,8,2.6,8.4,2.6,8.9c-0.1,0.6-0.1,1.2,0,1.9c0,0.1,0,0.2,0,0.3
	c-0.5,0.7-0.8,1.3-0.9,1.6c-0.5,1.1-1.2,2.9-1.6,5.7c0,0,0.3-1,1-2.2c0,0,0,0,0,0.1c-0.5,1.5-0.8,3.9-0.6,7.3c0-0.1,0.1-1,0.4-2.2
	c0.1,2.3,0.8,5.2,2.6,8.4c1.3,2.3,2.9,4,4.6,5.3c0.3,0.3,0.6,0.5,1,0.8c2.1,1.6,5.5,3.6,8.3,4c-1-0.3-1.6-0.9-1.6-0.9s3.4,1.1,5.8,1
	c-0.8-0.1-0.9-0.5-0.9-0.5s7,0.4,10.6-2.5c0.8-0.6,1.3-1.3,1.5-2c1.1-0.6,2.2-1.4,3.4-2.6c2-2,2.2-3.5,2.4-4.9c0,0.1,0,0.1,0,0.1
	C38.4,26.9,38.3,26.4,38.1,26.1z"/>
</svg>
