<?xml version="1.0" encoding="utf-8"?>
<!-- Generator: Adobe Illustrator 19.0.1, SVG Export Plug-In . SVG Version: 6.00 Build 0)  -->
<svg version="1.1" id="Layer_1" xmlns="http://www.w3.org/2000/svg" xmlns:xlink="http://www.w3.org/1999/xlink" x="0px" y="0px"
	 viewBox="0 0 36 36" style="enable-background:new 0 0 36 36;" xml:space="preserve">
<style type="text/css">
	.st0{fill:#AAAAAA;}
</style>
<g>
	<path class="st0" d="M27,33.2l-1.6-4c0.7-0.5,1.4-1,2.1-1.7c0.6-0.6,1.1-1.2,1.6-1.9l4,1.7c0.7,0.3,1.5,0,1.8-0.7l1-2.5
		c0.3-0.7,0-1.5-0.7-1.8l-4-1.7c0.3-1.7,0.3-3.4,0-5.1l4-1.6c0.7-0.3,1-1.1,0.7-1.7l-1-2.5c-0.3-0.7-1.1-1-1.7-0.7l-4,1.6
		c-0.5-0.7-1-1.4-1.7-2.1c-0.6-0.6-1.2-1.1-1.9-1.6l1.7-4c0.3-0.7,0-1.5-0.7-1.8l-2.5-1c-0.7-0.3-1.5,0-1.8,0.7l-1.7,4
		c-1.7-0.3-3.4-0.3-5.1,0l-1.6-4c-0.3-0.7-1.1-1-1.7-0.7l-2.5,1C9,1.4,8.7,2.2,9,2.8l1.6,4c-0.7,0.5-1.4,1-2.1,1.7
		C7.9,9.1,7.4,9.7,7,10.4L3,8.7c-0.7-0.3-1.5,0-1.8,0.7l-1,2.5c-0.3,0.7,0,1.5,0.7,1.8l4,1.7c-0.3,1.7-0.3,3.4,0,5.1l-4,1.6
		c-0.7,0.3-1,1.1-0.7,1.7l1,2.5c0.3,0.7,1.1,1,1.7,0.7l4-1.6c0.5,0.7,1,1.4,1.7,2.1c0.6,0.6,1.2,1.1,1.9,1.6l-1.7,4
		c-0.3,0.7,0,1.5,0.7,1.8l2.5,1c0.7,0.3,1.5,0,1.8-0.7l1.7-4c1.7,0.3,3.4,0.3,5.1,0l1.6,4c0.3,0.7,1.1,1,1.7,0.7l2.5-1
		C27,34.6,27.3,33.8,27,33.2z M13.7,22.3c-2.4-2.4-2.4-6.2,0-8.6c2.4-2.4,6.2-2.4,8.6,0c2.4,2.4,2.4,6.2,0,8.6
		C19.9,24.7,16.1,24.7,13.7,22.3z"/>
</g>
</svg>
