<?xml version="1.0" encoding="utf-8"?>
<!-- Generator: Adobe Illustrator 19.0.1, SVG Export Plug-In . SVG Version: 6.00 Build 0)  -->
<svg version="1.1" xmlns="http://www.w3.org/2000/svg" xmlns:xlink="http://www.w3.org/1999/xlink" x="0px" y="0px"
	 viewBox="0 0 20 19.7" style="enable-background:new 0 0 20 19.7;" xml:space="preserve">
<style type="text/css">
	.st0{fill:#FFCD02;}
	.st1{fill:#E5E5E5;}
</style>
<g id="filled-star">
	<path class="st0" d="M18.9,6.8l-1.6-0.3l-3.8-0.6l-1-1.9v0l-0.8-1.6L11,0.8c-0.5-1.1-1.4-1.1-1.9,0L8.3,2.4L7.5,3.9l0,0l-1,1.9
		L2.7,6.5L1.1,6.8C-0.1,7-0.4,7.8,0.5,8.7l3.9,4l-0.6,3.9l-0.3,1.8c-0.2,1.2,0.5,1.7,1.6,1.1l1.5-0.8L8.1,18l0,0l1.9-1l1.9,1l0,0
		l1.5,0.8l1.5,0.8c1.1,0.6,1.8,0,1.6-1.1l-0.3-1.8l-0.6-3.9l3.9-4C20.4,7.8,20.1,7,18.9,6.8z"/>
</g>
<g id="empty-star">
</g>
<g id="half-star">
</g>
</svg>
