<?xml version="1.0" encoding="utf-8"?>
<!-- Generator: Adobe Illustrator 19.0.1, SVG Export Plug-In . SVG Version: 6.00 Build 0)  -->
<svg version="1.1" xmlns="http://www.w3.org/2000/svg" xmlns:xlink="http://www.w3.org/1999/xlink" x="0px" y="0px"
	 viewBox="0 0 20 19.7" style="enable-background:new 0 0 20 19.7;" xml:space="preserve">
<style type="text/css">
	.st0{fill:#FFCD02;}
	.st1{fill:#E5E5E5;}
</style>
<g id="filled-star">
</g>
<g id="empty-star">
</g>
<g id="half-star">
	<path class="st1" d="M18.9,6.8l-0.8-0.1l-0.8-0.1l-1.9-0.3l-1.9-0.3l-0.5-1l-0.5-1v0v0l-0.4-0.8l-0.4-0.8l-0.4-0.8L11,0.8
		C10.7,0.3,10.4,0,10,0S9.3,0.3,9,0.8L8.6,1.6L8.3,2.4L7.9,3.2L7.5,3.9l0,0l0,0L7,4.9l-0.5,1L4.6,6.2L2.7,6.5L1.9,6.6L1.1,6.8
		C0.5,6.9,0.2,7.1,0,7.5s0,0.8,0.4,1.2l1.9,2l1.9,2l-0.3,2l-0.3,2l-0.1,0.9l-0.1,0.9c-0.1,0.6,0,1,0.3,1.2c0.3,0.2,0.7,0.2,1.3-0.1
		l0.7-0.4l0.7-0.4l0.7-0.4L8.1,18l0,0l0,0l1-0.5l1-0.5l1,0.5l1,0.5l0,0l0,0l0.7,0.4l0.7,0.4l0.7,0.4l0.7,0.4c0.5,0.3,1,0.3,1.3,0.1
		c0.3-0.2,0.4-0.6,0.3-1.2l-0.1-0.9l-0.1-0.9l-0.3-2l-0.3-2l1.9-2l1.9-2c0.4-0.4,0.5-0.9,0.4-1.2S19.5,6.9,18.9,6.8z"/>
	<path class="st0" d="M10,0C9.7,0,9.3,0.3,9,0.8L8.6,1.6L8.3,2.4L7.9,3.2L7.5,3.9l0,0l0,0L7,4.9l-0.5,1L4.6,6.2L2.7,6.5L1.9,6.6
		L1.1,6.8C0.5,6.9,0.2,7.1,0,7.5s0,0.8,0.4,1.2l1.9,2l1.9,2l-0.3,2l-0.3,2l-0.1,0.9l-0.1,0.9c-0.1,0.6,0,1,0.3,1.2
		c0.3,0.2,0.7,0.2,1.3-0.1l0.7-0.4l0.7-0.4l0.7-0.4L8.1,18l0,0l0,0l1-0.5l1-0.5L10,0z"/>
</g>
</svg>
